<mxfile host="app.diagrams.net" agent="Mozilla/5.0 (Macintosh; Intel Mac OS X 10_15_7) AppleWebKit/605.1.15 (KHTML, like Gecko) Version/18.1.1 Safari/605.1.15" version="25.0.3">
  <diagram name="Auth Use Cases" id="0">
    <mxGraphModel dx="18858" dy="26191" grid="1" gridSize="10" guides="1" tooltips="1" connect="1" arrows="1" fold="1" page="1" pageScale="1" pageWidth="827" pageHeight="1169" math="0" shadow="0">
      <root>
        <mxCell id="0" />
        <mxCell id="1" parent="0" />
        <mxCell id="actor-user" value="&lt;&lt;actor&gt;&gt; User" style="ellipse;whiteSpace=wrap;html=1;" parent="1" vertex="1">
          <mxGeometry x="50" y="150" width="120" height="40" as="geometry" />
        </mxCell>
        <mxCell id="login-use-case" value="&lt;&lt;use case&gt;&gt; Login" style="rounded=1;whiteSpace=wrap;html=1;" parent="1" vertex="1">
          <mxGeometry x="250" y="100" width="140" height="40" as="geometry" />
        </mxCell>
        <mxCell id="signup-use-case" value="&lt;&lt;use case&gt;&gt; Signup" style="rounded=1;whiteSpace=wrap;html=1;" parent="1" vertex="1">
          <mxGeometry x="250" y="200" width="140" height="40" as="geometry" />
        </mxCell>
        <mxCell id="logout-use-case" value="&lt;&lt;use case&gt;&gt; Logout" style="rounded=1;whiteSpace=wrap;html=1;" parent="1" vertex="1">
          <mxGeometry x="250" y="300" width="140" height="40" as="geometry" />
        </mxCell>
        <mxCell id="actor-to-login" parent="1" source="actor-user" target="login-use-case" edge="1" />
        <mxCell id="actor-to-signup" parent="1" source="actor-user" target="signup-use-case" edge="1" />
        <mxCell id="actor-to-logout" parent="1" source="actor-user" target="logout-use-case" edge="1" />
        <mxCell id="ndoAohtskPATExmZicW5-11" value="User" style="shape=umlActor;verticalLabelPosition=bottom;verticalAlign=top;html=1;" vertex="1" parent="1">
          <mxGeometry x="-120" y="-940" width="30" height="60" as="geometry" />
        </mxCell>
        <mxCell id="ndoAohtskPATExmZicW5-12" value="Browse Map Use Case" style="shape=ellipse;whiteSpace=wrap;html=1;aspect=fixed;" vertex="1" parent="1">
          <mxGeometry x="40" y="-860" width="160" height="80" as="geometry" />
        </mxCell>
        <mxCell id="ndoAohtskPATExmZicW5-13" value="Apply Filters Use" style="shape=ellipse;whiteSpace=wrap;html=1;aspect=fixed;" vertex="1" parent="1">
          <mxGeometry x="40" y="-1040" width="160" height="80" as="geometry" />
        </mxCell>
        <mxCell id="ndoAohtskPATExmZicW5-14" value="MapBloc" style="shape=umlComponent;whiteSpace=wrap;html=1;" vertex="1" parent="1">
          <mxGeometry x="260" y="-850" width="120" height="60" as="geometry" />
        </mxCell>
        <mxCell id="ndoAohtskPATExmZicW5-15" value="FilterBloc" style="shape=umlComponent;whiteSpace=wrap;html=1;" vertex="1" parent="1">
          <mxGeometry x="260" y="-1030" width="120" height="60" as="geometry" />
        </mxCell>
        <mxCell id="ndoAohtskPATExmZicW5-16" style="edgeStyle=orthogonalEdgeStyle;rounded=0;orthogonalLoop=1;jettySize=auto;loopDirection=0;endArrow=open;strokeColor=#000000;curved=1;" edge="1" parent="1" source="ndoAohtskPATExmZicW5-11" target="ndoAohtskPATExmZicW5-12">
          <mxGeometry relative="1" as="geometry">
            <mxPoint x="155" y="-960" as="targetPoint" />
            <Array as="points">
              <mxPoint x="-20" y="-910" />
              <mxPoint x="-20" y="-820" />
            </Array>
          </mxGeometry>
        </mxCell>
        <mxCell id="ndoAohtskPATExmZicW5-17" style="edgeStyle=orthogonalEdgeStyle;rounded=0;orthogonalLoop=1;jettySize=auto;loopDirection=0;endArrow=open;strokeColor=#000000;curved=1;" edge="1" parent="1" source="ndoAohtskPATExmZicW5-11" target="ndoAohtskPATExmZicW5-13">
          <mxGeometry relative="1" as="geometry">
            <mxPoint x="155" y="-960" as="targetPoint" />
            <Array as="points">
              <mxPoint x="-20" y="-910" />
              <mxPoint x="-20" y="-1000" />
            </Array>
          </mxGeometry>
        </mxCell>
        <mxCell id="ndoAohtskPATExmZicW5-18" style="edgeStyle=orthogonalEdgeStyle;rounded=0;orthogonalLoop=1;jettySize=auto;loopDirection=0;endArrow=open;strokeColor=#000000;" edge="1" parent="1" source="ndoAohtskPATExmZicW5-12" target="ndoAohtskPATExmZicW5-14">
          <mxGeometry relative="1" as="geometry">
            <mxPoint x="120" y="-810" as="targetPoint" />
          </mxGeometry>
        </mxCell>
        <mxCell id="ndoAohtskPATExmZicW5-19" style="edgeStyle=orthogonalEdgeStyle;rounded=0;orthogonalLoop=1;jettySize=auto;loopDirection=0;endArrow=open;strokeColor=#000000;" edge="1" parent="1" source="ndoAohtskPATExmZicW5-13" target="ndoAohtskPATExmZicW5-15">
          <mxGeometry relative="1" as="geometry">
            <mxPoint x="320" y="-810" as="targetPoint" />
          </mxGeometry>
        </mxCell>
      </root>
    </mxGraphModel>
  </diagram>
</mxfile>
